<?xml version="1.0" encoding="UTF-8" standalone="no"?><!DOCTYPE svg PUBLIC "-//W3C//DTD SVG 1.1//EN" "http://www.w3.org/Graphics/SVG/1.1/DTD/svg11.dtd"><svg width="100%" height="100%" viewBox="0 0 225 216" version="1.1" xmlns="http://www.w3.org/2000/svg" xmlns:xlink="http://www.w3.org/1999/xlink" xml:space="preserve" xmlns:serif="http://www.serif.com/" style="fill-rule:evenodd;clip-rule:evenodd;stroke-linecap:round;stroke-linejoin:round;stroke-miterlimit:1.5;"><g><g><path d="M2,190.704l0,-165.408l167.229,0l0,-23.296l53.771,106l-53.771,106l0,-23.296l-167.229,0Z" style="fill:none;stroke:#000;stroke-opacity:0.72;stroke-width:4px;"/><g><g><rect x="18.127" y="61.915" width="7.98" height="37.246" style="fill-rule:nonzero;"/><path d="M31.873,61.915l7.436,0l9.703,20.605l0,-20.605l7.506,0l0,37.246l-7.506,0l-9.651,-20.452l0,20.452l-7.488,0l0,-37.246Z" style="fill-rule:nonzero;"/><path d="M60.42,86.839l7.576,-0.686c0.164,1.779 0.498,3.134 1.002,4.065c0.82,1.508 1.992,2.261 3.516,2.261c1.136,0 2.012,-0.385 2.628,-1.156c0.615,-0.77 0.922,-1.664 0.922,-2.68c0,-0.965 -0.293,-1.829 -0.878,-2.591c-0.586,-0.763 -1.946,-1.482 -4.079,-2.16c-3.492,-1.135 -5.982,-2.642 -7.47,-4.522c-1.5,-1.88 -2.25,-4.277 -2.25,-7.19c0,-1.914 0.384,-3.722 1.151,-5.425c0.768,-1.702 1.922,-3.04 3.463,-4.014c1.541,-0.974 3.653,-1.461 6.337,-1.461c3.293,0 5.804,0.885 7.532,2.655c1.729,1.77 2.757,4.586 3.085,8.448l-7.506,0.635c-0.199,-1.677 -0.618,-2.896 -1.257,-3.658c-0.638,-0.763 -1.52,-1.144 -2.645,-1.144c-0.926,0 -1.623,0.284 -2.092,0.851c-0.469,0.568 -0.703,1.258 -0.703,2.071c0,0.593 0.193,1.126 0.58,1.601c0.375,0.491 1.266,0.948 2.672,1.372c3.48,1.084 5.974,2.18 7.479,3.29c1.506,1.109 2.602,2.485 3.288,4.128c0.685,1.643 1.028,3.481 1.028,5.513c0,2.389 -0.457,4.591 -1.371,6.606c-0.914,2.016 -2.192,3.544 -3.832,4.586c-1.641,1.042 -3.709,1.563 -6.205,1.563c-4.383,0 -7.418,-1.22 -9.106,-3.659c-1.687,-2.439 -2.642,-5.539 -2.865,-9.299Z" style="fill-rule:nonzero;"/><path d="M87.789,61.915l21.34,0l0,7.953l-13.359,0l0,5.919l12.392,0l0,7.597l-12.392,0l0,7.342l13.746,0l0,8.435l-21.727,0l0,-37.246Z" style="fill-rule:nonzero;"/><path d="M113.91,99.161l0,-37.246l13.272,0c2.461,0 4.341,0.305 5.642,0.915c1.301,0.61 2.35,1.74 3.147,3.392c0.797,1.651 1.195,3.663 1.195,6.034c0,2.066 -0.305,3.849 -0.914,5.348c-0.609,1.499 -1.447,2.714 -2.514,3.646c-0.679,0.593 -1.611,1.084 -2.795,1.473c0.95,0.458 1.641,0.915 2.075,1.372c0.293,0.305 0.717,0.957 1.274,1.957c0.557,0.999 0.929,1.77 1.116,2.312l3.85,10.797l-9,0l-4.254,-11.382c-0.539,-1.473 -1.02,-2.43 -1.441,-2.871c-0.575,-0.576 -1.225,-0.864 -1.952,-0.864l-0.703,0l0,15.117l-7.998,0Zm7.998,-22.154l3.358,0c0.363,0 1.066,-0.169 2.109,-0.508c0.527,-0.153 0.958,-0.542 1.292,-1.169c0.334,-0.627 0.501,-1.346 0.501,-2.159c0,-1.203 -0.264,-2.126 -0.791,-2.77c-0.527,-0.643 -1.518,-0.965 -2.971,-0.965l-3.498,0l0,7.571Z" style="fill-rule:nonzero;"/><path d="M139.68,61.915l24.205,0l0,9.198l-8.121,0l0,28.048l-7.963,0l0,-28.048l-8.121,0l0,-9.198Z" style="fill-rule:nonzero;"/></g><g><path d="M16,116.839l24.205,0l0,9.197l-8.121,0l0,28.049l-7.963,0l0,-28.049l-8.121,0l0,-9.197Z" style="fill-rule:nonzero;"/><path d="M41.576,135.487c0,-6.081 1.172,-10.815 3.516,-14.202c2.344,-3.388 5.607,-5.082 9.791,-5.082c4.289,0 7.594,1.665 9.914,4.993c2.32,3.328 3.48,7.99 3.48,13.986c0,4.353 -0.506,7.923 -1.52,10.709c-1.014,2.786 -2.479,4.954 -4.395,6.504c-1.916,1.55 -4.303,2.325 -7.163,2.325c-2.906,0 -5.311,-0.669 -7.216,-2.007c-1.904,-1.338 -3.448,-3.456 -4.631,-6.352c-1.184,-2.896 -1.776,-6.521 -1.776,-10.874Zm7.963,0.051c0,3.76 0.483,6.462 1.45,8.104c0.967,1.643 2.282,2.465 3.947,2.465c1.71,0 3.035,-0.805 3.972,-2.414c0.938,-1.609 1.406,-4.497 1.406,-8.663c0,-3.506 -0.489,-6.068 -1.467,-7.686c-0.979,-1.617 -2.306,-2.426 -3.982,-2.426c-1.605,0 -2.894,0.821 -3.867,2.464c-0.973,1.643 -1.459,4.362 -1.459,8.156Z" style="fill-rule:nonzero;"/><path d="M72.602,116.839l7.962,0l0,14.075l8.35,-14.075l10.582,0l-9.387,14.049l9.809,23.197l-9.809,0l-5.431,-15.321l-4.114,6.225l0,9.096l-7.962,0l0,-37.246Z" style="fill-rule:nonzero;"/><path d="M102.537,116.839l21.34,0l0,7.952l-13.359,0l0,5.92l12.392,0l0,7.596l-12.392,0l0,7.343l13.746,0l0,8.435l-21.727,0l0,-37.246Z" style="fill-rule:nonzero;"/><path d="M128.605,116.839l7.436,0l9.703,20.604l0,-20.604l7.506,0l0,37.246l-7.506,0l-9.65,-20.453l0,20.453l-7.489,0l0,-37.246Z" style="fill-rule:nonzero;"/></g></g></g></g></svg>